<?xml version="1.0" encoding="UTF-8"?>
<!-- Generator: Adobe Illustrator 21.1.0, SVG Export Plug-In . SVG Version: 6.00 Build 0)  -->
<svg version="1.1" id="Layer_1" xmlns="http://www.w3.org/2000/svg" xmlns:xlink="http://www.w3.org/1999/xlink" x="0px" y="0px" viewBox="0 0 31.6 20" style="enable-background:new 0 0 31.6 20;" xml:space="preserve">
<style type="text/css">
	.st0{fill:#26337A;}
	.st1{fill:#FFFFFE;}
	.st2{fill:#EC982D;}
	.st3{fill:#000066;}
	.st4{fill:#CC0000;}
	.st5{fill:#FF9900;}
	.st6{fill:#FFFFFF;}
	.st7{fill:none;stroke:#E6772F;stroke-width:0.5;}
	.st8{fill:#E6772F;}
	.st9{fill:#1A1919;}
	.st10{fill:#0072CE;}
</style>
<g>
	<path class="st0" d="M1,0h29.6c0.6,0,1,0.4,1,1v18c0,0.6-0.4,1-1,1H1c-0.6,0-1-0.4-1-1V1C0,0.4,0.4,0,1,0z"/>
	<path class="st1" d="M13.1,13.2l1-6.4h1.6l-1,6.4H13.1 M20.3,7c-0.4-0.2-0.9-0.3-1.4-0.3c-1.5,0-2.6,0.9-2.6,2.1   c0,0.9,0.8,1.4,1.4,1.7c0.6,0.3,0.8,0.5,0.8,0.8c0,0.4-0.5,0.6-0.9,0.6c-0.6,0-1-0.1-1.5-0.3l-0.2-0.1l-0.2,1.4   c0.4,0.2,1,0.3,1.7,0.3c1.6,0,2.7-0.9,2.7-2.2c0-0.7-0.4-1.3-1.3-1.7c-0.5-0.3-0.9-0.5-0.9-0.8c0-0.3,0.3-0.5,0.9-0.5   c0.4,0,0.8,0.1,1.2,0.2l0.1,0.1L20.3,7 M22.3,10.9c0.1-0.4,0.6-1.8,0.6-1.8c0,0,0.1-0.4,0.2-0.6l0.1,0.5c0,0,0.3,1.5,0.4,1.8   C23.6,10.9,22.3,10.9,22.3,10.9z M24.3,6.8h-1.2c-0.4,0-0.6,0.1-0.8,0.5l-2.3,5.8h1.6c0,0,0.3-0.8,0.3-1l2,0c0,0.2,0.2,1,0.2,1h1.4   L24.3,6.8L24.3,6.8z M11.8,6.8l-1.5,4.3l-0.2-0.9C9.8,9.3,9,8.2,8,7.6l1.4,5.6H11l2.4-6.3L11.8,6.8"/>
	<path class="st2" d="M8.9,6.8H6.4l0,0.1c1.9,0.5,3.2,1.8,3.8,3.3L9.6,7.4C9.5,7,9.2,6.8,8.9,6.8"/>
</g>
</svg>