<?xml version="1.0" encoding="UTF-8"?>
<!-- Generator: Adobe Illustrator 21.1.0, SVG Export Plug-In . SVG Version: 6.00 Build 0)  -->
<svg version="1.1" id="Layer_1" xmlns="http://www.w3.org/2000/svg" xmlns:xlink="http://www.w3.org/1999/xlink" x="0px" y="0px" viewBox="0 0 31.8 20" style="enable-background:new 0 0 31.8 20;" xml:space="preserve">
<style type="text/css">
	.st0{fill:#26337A;}
	.st1{fill:#FFFFFE;}
	.st2{fill:#EC982D;}
	.st3{fill:#000066;}
	.st4{fill:#CC0000;}
	.st5{fill:#FF9900;}
	.st6{fill:#FFFFFF;}
	.st7{fill:none;stroke:#E6772F;stroke-width:0.5;}
	.st8{fill:#E6772F;}
	.st9{fill:#1A1919;}
	.st10{fill:#0072CE;}
</style>
<g>
	<path class="st10" d="M1,0h29.8c0.6,0,1,0.4,1,1v18c0,0.6-0.4,1-1,1H1c-0.6,0-1-0.4-1-1V1C0,0.4,0.4,0,1,0z"/>
	<path class="st6" d="M26.9,11.6h-1.1c-0.1,0-0.2,0-0.2,0c-0.1,0-0.1,0.1-0.1,0.2c0,0.1,0.1,0.2,0.1,0.2c0.1,0,0.1,0,0.2,0l0.3,0   c0.3,0,0.6,0.1,0.7,0.2c0,0,0,0,0.1,0.1V11.6z M26.9,13.3c-0.1,0.2-0.4,0.3-0.8,0.3h-1.2v-0.6H26c0.1,0,0.2,0,0.2-0.1   c0,0,0.1-0.1,0.1-0.2c0-0.1,0-0.1-0.1-0.2c0,0-0.1-0.1-0.2-0.1c-0.6,0-1.3,0-1.3-0.8c0-0.4,0.2-0.8,0.9-0.8h1.2v-0.5h-1.1   c-0.3,0-0.6,0.1-0.8,0.2v-0.2h-1.7c-0.3,0-0.6,0.1-0.7,0.2v-0.2h-3v0.2c-0.2-0.2-0.6-0.2-0.8-0.2h-2v0.2c-0.2-0.2-0.6-0.2-0.9-0.2   h-2.2L13.1,11l-0.5-0.6H9.3v3.8h3.3l0.5-0.6l0.5,0.6l2,0v-0.9h0.2c0.3,0,0.6,0,0.9-0.1v1h1.7v-1h0.1c0.1,0,0.1,0,0.1,0.1v0.9h5   c0.3,0,0.7-0.1,0.8-0.2v0.2H26c0.3,0,0.7,0,0.9-0.2L26.9,13.3L26.9,13.3z M24.4,12.3c0.1,0.1,0.2,0.3,0.2,0.6c0,0.6-0.3,0.9-1,0.9   h-1.2v-0.6h1.2c0.1,0,0.2,0,0.3-0.1c0,0,0.1-0.1,0.1-0.2c0-0.1,0-0.1-0.1-0.2c0,0-0.1-0.1-0.2-0.1c-0.6,0-1.3,0-1.3-0.8   c0-0.4,0.2-0.8,0.9-0.8h1.2v0.6h-1.1c-0.1,0-0.2,0-0.2,0.1c-0.1,0-0.1,0.1-0.1,0.2c0,0.1,0.1,0.2,0.1,0.2c0.1,0,0.1,0,0.2,0l0.3,0   C24,12,24.3,12.1,24.4,12.3L24.4,12.3z M18.8,12.2c-0.1,0.1-0.2,0.1-0.3,0.1h-0.8v-0.8h0.8c0.1,0,0.2,0,0.3,0.1   c0.1,0.1,0.1,0.2,0.1,0.3C19,12,18.9,12.2,18.8,12.2z M19.2,12.4c0.1,0.1,0.2,0.1,0.3,0.2c0.1,0.1,0.1,0.3,0.1,0.5v0.5H19v-0.3   c0-0.2,0-0.4-0.1-0.5c-0.1-0.1-0.2-0.1-0.5-0.1h-0.7v1h-0.6V11h1.4c0.3,0,0.5,0,0.7,0.1c0.2,0.1,0.3,0.3,0.3,0.6   C19.6,12.1,19.4,12.4,19.2,12.4z M20,11H22v0.6h-1.4V12H22v0.6h-1.4v0.5l1.4,0v0.6H20L20,11L20,11z M15.8,12.3H15v-0.8h0.8   c0.2,0,0.4,0.1,0.4,0.4C16.2,12.2,16.1,12.3,15.8,12.3L15.8,12.3z M14.4,13.4l-1-1.1l1-1.1V13.4z M12,13.1h-1.5v-0.5h1.4V12h-1.4   v-0.5H12l0.7,0.8L12,13.1L12,13.1z M16.9,11.9c0,0.7-0.5,0.9-1.1,0.9H15v0.9h-1.2l-0.8-0.9l-0.8,0.9H9.8V11h2.5l0.8,0.9l0.8-0.9h2   C16.3,11,16.9,11.1,16.9,11.9z M7,7.9L6.5,6.8L6.1,7.9H7L7,7.9z M16.2,7.6c-0.1,0.1-0.2,0.1-0.3,0.1h-0.8V6.9h0.8   c0.1,0,0.2,0,0.3,0.1c0.1,0.1,0.1,0.2,0.1,0.3C16.3,7.4,16.3,7.5,16.2,7.6z M21.6,7.9l-0.5-1.1l-0.5,1.1   C20.7,7.9,21.6,7.9,21.6,7.9z M11.6,9h-0.6l0-2.1L10,9H9.5L8.6,6.9V9H7.4L7.1,8.4H5.8L5.6,9H4.9L6,6.3h0.9L8,8.9V6.3h1l0.8,1.8   l0.7-1.8h1C11.6,6.3,11.6,9,11.6,9z M14.1,9H12V6.3h2.1v0.6h-1.4v0.5h1.4v0.6h-1.4v0.5h1.4C14.1,8.5,14.1,9,14.1,9z M17,7.1   c0,0.4-0.3,0.7-0.4,0.7c0.1,0.1,0.2,0.1,0.3,0.2C17,8.1,17,8.3,17,8.5V9h-0.6l0-0.3c0-0.2,0-0.4-0.1-0.5c-0.1-0.1-0.2-0.1-0.4-0.1   h-0.7v1h-0.6V6.3h1.4c0.3,0,0.5,0,0.7,0.1C16.9,6.6,17,6.8,17,7.1L17,7.1z M18.3,9h-1V6.3h1V9z M25.3,9h-0.9l-1.2-2v2H22l-0.2-0.6   h-1.3L20.2,9h-0.7c-0.3,0-0.7-0.1-0.9-0.3c-0.2-0.2-0.3-0.5-0.3-1c0-0.4,0.1-0.8,0.3-1.1c0.2-0.2,0.5-0.3,0.9-0.3h0.6v0.6h-0.6   c-0.2,0-0.4,0-0.5,0.2c-0.1,0.1-0.2,0.3-0.2,0.6c0,0.3,0.1,0.5,0.2,0.6c0.1,0.1,0.3,0.1,0.4,0.1h0.3l0.9-2.1h0.9l1,2.5V6.3h0.9   l1.1,1.9V6.3h0.6C25.3,6.3,25.3,9,25.3,9z M4.9,9.6H6L6.2,9h0.5L7,9.6H9V9.1l0.2,0.5h1.1l0.2-0.5v0.5h5.2l0-1h0.1   c0.1,0,0.1,0,0.1,0.1v0.9h2.7V9.3c0.2,0.1,0.5,0.2,1,0.2h1.1L20.9,9h0.5l0.2,0.6h2.2V9l0.3,0.6h1.7V5.8h-1.7v0.4l-0.2-0.4h-1.8v0.4   l-0.2-0.4h-2.4c-0.4,0-0.7,0.1-1,0.2V5.8h-1.6V6c-0.2-0.2-0.4-0.2-0.7-0.2h-6l-0.4,1l-0.4-1H7.5v0.4L7.3,5.8H5.7L4.9,7.6L4.9,9.6   L4.9,9.6z"/>
</g>
</svg>