<?xml version="1.0" encoding="UTF-8"?>
<!-- Generator: Adobe Illustrator 21.1.0, SVG Export Plug-In . SVG Version: 6.00 Build 0)  -->
<svg version="1.1" id="Layer_1" xmlns="http://www.w3.org/2000/svg" xmlns:xlink="http://www.w3.org/1999/xlink" x="0px" y="0px" viewBox="0 0 31.8 20" style="enable-background:new 0 0 31.8 20;" xml:space="preserve">
<style type="text/css">
	.st0{fill:#26337A;}
	.st1{fill:#FFFFFE;}
	.st2{fill:#EC982D;}
	.st3{fill:#000066;}
	.st4{fill:#CC0000;}
	.st5{fill:#FF9900;}
	.st6{fill:#FFFFFF;}
	.st7{fill:none;stroke:#E6772F;stroke-width:0.5;}
	.st8{fill:#E6772F;}
	.st9{fill:#1A1919;}
	.st10{fill:#0072CE;}
</style>
<g>
	<path class="st3" d="M1,0h29.8c0.6,0,1,0.4,1,1v18c0,0.6-0.4,1-1,1H1c-0.6,0-1-0.4-1-1V1C0,0.4,0.4,0,1,0z"/>
	<path class="st4" d="M17.9,10.2c0,3.6-2.8,6.5-6.2,6.5s-6.2-2.9-6.2-6.5s2.8-6.5,6.2-6.5S17.9,6.6,17.9,10.2"/>
	<path class="st5" d="M20,3.7c-1.6,0-3.1,0.6-4.2,1.7c-0.2,0.2-0.4,0.4-0.6,0.7h1.3c0.2,0.2,0.3,0.4,0.5,0.7h-2.2   c-0.1,0.2-0.3,0.5-0.4,0.7h2.9c0.1,0.2,0.2,0.5,0.3,0.7h-3.4C14,8.3,14,8.6,13.9,8.8h3.8c0.2,1.1,0.2,2.3-0.2,3.4h-3.4   c0.1,0.2,0.2,0.5,0.3,0.7h2.9c-0.1,0.2-0.2,0.5-0.4,0.7h-2.2c0.1,0.2,0.3,0.5,0.5,0.7h1.3c-0.2,0.2-0.4,0.5-0.6,0.7   c1.1,1.1,2.6,1.7,4.2,1.7c3.4,0,6.2-2.9,6.2-6.5S23.4,3.7,20,3.7"/>
	<path class="st6" d="M8.7,11.9H8.1l0.4-2.5l-0.9,2.5H7.1L7.1,9.4l-0.4,2.5H6l0.5-3.3h1l0,2l0.7-2h1L8.7,11.9 M10.4,10.7   c0,0-0.1,0-0.1,0c-0.4,0-0.6,0.1-0.6,0.4c0,0.2,0.1,0.3,0.2,0.3C10.2,11.3,10.4,11.1,10.4,10.7z M10.9,11.9h-0.6l0-0.3   c-0.2,0.2-0.4,0.3-0.7,0.3c-0.4,0-0.6-0.3-0.6-0.7c0-0.7,0.4-1,1.2-1c0.1,0,0.2,0,0.3,0c0-0.1,0-0.1,0-0.2c0-0.2-0.1-0.2-0.4-0.2   c-0.2,0-0.5,0-0.7,0.1l0.1-0.6c0.3-0.1,0.6-0.1,0.8-0.1c0.6,0,0.9,0.3,0.9,0.8c0,0.1,0,0.3-0.1,0.5C11,10.9,10.9,11.4,10.9,11.9z    M19.9,8.7l-0.1,0.7c-0.2-0.1-0.4-0.2-0.6-0.2c-0.5,0-0.9,0.5-0.9,1.2c0,0.5,0.2,0.8,0.6,0.8c0.2,0,0.3-0.1,0.6-0.2l-0.1,0.8   c-0.2,0.1-0.4,0.1-0.6,0.1c-0.7,0-1.2-0.5-1.2-1.4c0-1.2,0.6-2,1.5-2C19.5,8.5,19.8,8.6,19.9,8.7 M21,10.7c0,0-0.1,0-0.1,0   c-0.4,0-0.6,0.1-0.6,0.4c0,0.2,0.1,0.3,0.2,0.3C20.8,11.3,21,11.1,21,10.7z M21.5,11.9h-0.6l0-0.3c-0.2,0.2-0.4,0.3-0.7,0.3   c-0.4,0-0.6-0.3-0.6-0.7c0-0.7,0.4-1,1.2-1c0.1,0,0.2,0,0.3,0c0-0.1,0-0.1,0-0.2c0-0.2-0.1-0.2-0.4-0.2c-0.2,0-0.5,0-0.7,0.1   l0.1-0.6c0.3-0.1,0.6-0.1,0.8-0.1c0.6,0,0.9,0.3,0.9,0.8c0,0.2,0,0.4-0.1,0.5C21.6,10.8,21.5,11.7,21.5,11.9L21.5,11.9z M13.9,11.8   c-0.2,0.1-0.3,0.1-0.5,0.1c-0.3,0-0.5-0.2-0.5-0.6c0-0.1,0.1-0.4,0.1-0.7c0-0.3,0.3-1.8,0.3-1.8h0.7l-0.1,0.4h0.3l-0.1,0.6h-0.3   c-0.1,0.5-0.2,1.1-0.2,1.2c0,0.1,0.1,0.2,0.2,0.2c0.1,0,0.1,0,0.2,0L13.9,11.8 M15.9,11.8c-0.2,0.1-0.5,0.1-0.7,0.1   c-0.8,0-1.1-0.4-1.1-1.2c0-0.9,0.5-1.6,1.2-1.6c0.6,0,0.9,0.4,0.9,1c0,0.2,0,0.4-0.1,0.7h-1.3c0,0.4,0.2,0.6,0.6,0.6   c0.2,0,0.5-0.1,0.7-0.2L15.9,11.8L15.9,11.8z M15.6,10.2c0-0.1,0.1-0.5-0.3-0.5c-0.2,0-0.4,0.2-0.4,0.5   C14.8,10.2,15.6,10.2,15.6,10.2z M11.3,10c0,0.3,0.2,0.6,0.5,0.8c0.3,0.1,0.3,0.2,0.3,0.3c0,0.2-0.1,0.2-0.4,0.2   c-0.2,0-0.4,0-0.6-0.1L11,11.8c0.2,0,0.3,0.1,0.7,0.1c0.7,0,1-0.3,1-0.9c0-0.4-0.1-0.6-0.5-0.7C12,10.1,12,10.1,12,10   c0-0.1,0.1-0.2,0.3-0.2c0.1,0,0.3,0,0.5,0l0.1-0.6c-0.2,0-0.4,0-0.6-0.1C11.5,9.1,11.3,9.5,11.3,10 M25.1,11.9h-0.6l0-0.2   c-0.2,0.2-0.4,0.3-0.6,0.3c-0.5,0-0.8-0.4-0.8-1.1c0-0.9,0.5-1.6,1.1-1.6c0.3,0,0.5,0.1,0.6,0.4l0.1-1h0.7   C25.6,8.6,25.1,11.9,25.1,11.9z M24.1,11.3c0.3,0,0.5-0.4,0.5-0.9c0-0.3-0.1-0.5-0.4-0.5c-0.3,0-0.5,0.4-0.5,0.9   C23.7,11.1,23.9,11.3,24.1,11.3z M22.1,9.2c-0.1,0.8-0.2,1.7-0.4,2.5l0,0.2h0.7c0.2-1.6,0.3-2,0.7-1.9c0.1-0.3,0.2-0.6,0.3-0.8   c-0.3-0.1-0.4,0.1-0.6,0.4c0-0.1,0-0.3,0-0.4L22.1,9.2 M16.6,9.2c-0.1,0.8-0.2,1.7-0.4,2.5l0,0.2h0.7c0.2-1.6,0.3-2,0.7-1.9   c0.1-0.3,0.2-0.6,0.3-0.8c-0.3-0.1-0.4,0.1-0.6,0.4c0-0.1,0-0.3,0-0.4L16.6,9.2"/>
</g>
</svg>