<?xml version="1.0" encoding="UTF-8"?>
<!-- Generator: Adobe Illustrator 21.1.0, SVG Export Plug-In . SVG Version: 6.00 Build 0)  -->
<svg version="1.1" id="Layer_1" xmlns="http://www.w3.org/2000/svg" xmlns:xlink="http://www.w3.org/1999/xlink" x="0px" y="0px" viewBox="0 0 31.6 20" style="enable-background:new 0 0 31.6 20;" xml:space="preserve">
<style type="text/css">
	.st0{fill:#26337A;}
	.st1{fill:#FFFFFE;}
	.st2{fill:#EC982D;}
	.st3{fill:#000066;}
	.st4{fill:#CC0000;}
	.st5{fill:#FF9900;}
	.st6{fill:#FFFFFF;}
	.st7{fill:none;stroke:#E6772F;stroke-width:0.5;}
	.st8{fill:#E6772F;}
	.st9{fill:#1A1919;}
	.st10{fill:#0072CE;}
</style>
<g>
	<path id="a" class="st6" d="M1,0h29.6c0.6,0,1,0.4,1,1v18c0,0.6-0.4,1-1,1H1c-0.6,0-1-0.4-1-1V1C0,0.4,0.4,0,1,0z"/>
	<path class="st7" d="M1.2,0.2h29.1c0.6,0,1,0.4,1,1v17.5c0,0.6-0.4,1-1,1H1.2c-0.6,0-1-0.4-1-1V1.2C0.2,0.7,0.7,0.2,1.2,0.2z"/>
	<path id="b" class="st8" d="M7.6,20h23c0.6,0,1-0.4,1-1v-7.8C31.6,11.2,23.1,17.3,7.6,20z"/>
	<path class="st9" d="M5.8,9.9c-0.2,0.2-0.5,0.3-1,0.3H4.6V7.7h0.2c0.5,0,0.8,0.1,1,0.3C6,8.2,6.2,8.6,6.2,9C6.2,9.3,6,9.7,5.8,9.9   L5.8,9.9z M4.9,7H3.8v3.9h1.1c0.6,0,1-0.1,1.4-0.4C6.7,10.1,7,9.5,7,9C7,7.8,6.1,7,4.9,7L4.9,7z M7.3,7H8v3.9H7.3V7z M9.9,8.5   C9.4,8.4,9.3,8.2,9.3,8c0-0.2,0.2-0.4,0.6-0.4c0.2,0,0.4,0.1,0.6,0.3l0.4-0.5C10.5,7.1,10.1,7,9.7,7C9,7,8.5,7.5,8.5,8.1   c0,0.5,0.2,0.8,0.9,1.1C9.7,9.2,9.9,9.3,10,9.4c0.1,0.1,0.2,0.2,0.2,0.4c0,0.3-0.2,0.5-0.6,0.5c-0.4,0-0.6-0.2-0.8-0.5l-0.5,0.5   C8.7,10.8,9.1,11,9.6,11c0.8,0,1.3-0.5,1.3-1.3C11,9.1,10.7,8.8,9.9,8.5 M11.2,9c0,1.1,0.9,2,2,2c0,0,0,0,0.1,0   c0.3,0,0.6-0.1,0.9-0.2V9.9c-0.3,0.3-0.6,0.4-0.9,0.4C12.5,10.3,12,9.8,12,9c0-0.7,0.5-1.3,1.2-1.3c0.4,0,0.6,0.1,0.9,0.4V7.2   C13.9,7,13.6,7,13.2,7C12.1,7,11.2,7.9,11.2,9 M20.2,9.6l-1-2.6h-0.8l1.6,4h0.4L22,7h-0.8L20.2,9.6 M22.4,10.9h2.1v-0.7h-1.4v-1   h1.3V8.6h-1.3V7.7h1.4V7h-2.1V10.9 M25.9,8.8h-0.2V7.6h0.2c0.5,0,0.7,0.2,0.7,0.6C26.7,8.6,26.4,8.8,25.9,8.8z M27.4,8.2   c0-0.7-0.5-1.1-1.4-1.1H25v3.9h0.7V9.4h0.1l1,1.6h0.9l-1.2-1.6C27.1,9.2,27.4,8.8,27.4,8.2z"/>
	<path class="st8" d="M18.5,9c0,1.1-0.9,2-2,2c0,0,0,0,0,0c-1.1,0-2-0.9-2-2c0-1.1,0.9-2,2-2C17.6,7,18.5,7.9,18.5,9"/>
</g>
</svg>