<?xml version="1.0" encoding="utf-8"?>
<!-- Generator: Adobe Illustrator 24.1.1, SVG Export Plug-In . SVG Version: 6.00 Build 0)  -->
<svg version="1.1" id="Layer_1" xmlns="http://www.w3.org/2000/svg" xmlns:xlink="http://www.w3.org/1999/xlink" x="0px" y="0px"
	 viewBox="0 0 170 70" style="enable-background:new 0 0 170 70;" xml:space="preserve">
<g>
	<path d="M16.2,38.5l0.3,0.1c-1,5.8-4.9,7.5-7.9,7.5C4.3,46,0,42.6,0,36c0-6.3,3.7-10.8,8.8-10.8c3.2,0,7.7,1.7,7.7,8.8H5.7
		c0.6,4.2,2.8,6.4,6.1,6.4C13.8,40.5,15.1,39.9,16.2,38.5L16.2,38.5z M5.6,31.8c0,0.4,0,0.7,0,1.1h4.7c0-5-0.8-6.4-2.3-6.4
		C6.4,26.5,5.6,28.5,5.6,31.8L5.6,31.8z M28.3,45.3v0.2H17.5v-0.2c1.1-0.4,1.8-1.3,1.8-2.8V23.8c0-1.4-0.5-2.4-1.8-2.8v-0.2l9-2.7
		v24.4C26.4,44,27.2,44.9,28.3,45.3L28.3,45.3z M41.3,45.3v0.2H30.5v-0.2c1-0.4,1.8-1.3,1.8-2.8V31c0-1.8-0.5-2.6-1.8-3v-0.2l9-2.5
		v17.2C39.5,44,40.3,44.9,41.3,45.3z M32,21.3c0-2,1.6-3.7,3.7-3.7c2,0,3.7,1.6,3.7,3.7c0,2-1.6,3.7-3.7,3.7l0,0
		C33.7,25,32,23.3,32,21.3L32,21.3z M55.7,40.5c-0.8,2.8-3.1,5.6-7,5.6c-3.6,0-5.1-2.3-5.1-5.4V26.8h-1.8v-0.2
		c2.9-2.5,6-4.8,8.9-7.4l0,0v6.6h3.5v0.9h-3.5v12.8c0,1.6,0.7,2.7,2,2.7c1.5,0,2.3-1,2.6-1.9L55.7,40.5L55.7,40.5z M72.7,38.5
		l0.3,0.1c-1,5.8-4.9,7.5-7.9,7.5c-4.3,0-8.6-3.5-8.6-10c0-6.3,3.7-10.8,8.8-10.8c3.2,0,7.7,1.7,7.7,8.8H62.3
		c0.6,4.2,2.8,6.4,6.1,6.4C70.4,40.5,71.7,39.9,72.7,38.5z M62.2,31.8c0,0.4,0,0.7,0,1.1h4.6c0-5-0.8-6.4-2.3-6.4
		C63,26.5,62.2,28.5,62.2,31.8L62.2,31.8z M102.8,45.3v0.2h-9v-3.3c-0.7,2.1-2.4,3.9-5.2,3.9c-4.2,0-6.7-4-6.7-9.7
		c0-6.5,3.9-11.1,9.2-11.1c1.3,0,2.1,0.3,2.7,0.7v-2.2c0-1.4-0.8-2.5-2.8-2.5v-0.2l9.9-3v24.4C101,44.4,101.7,44.9,102.8,45.3
		L102.8,45.3z M93.8,41.5V26.9c-0.3-0.3-0.6-0.4-1.1-0.4c-2,0-3.1,3.5-3.1,7.9c0,5.1,1.4,7.8,2.9,7.8C93.2,42.3,93.6,42,93.8,41.5z
		 M125.2,45.3v0.2h-9v-3.2c-0.7,2.2-3.1,3.7-5.6,3.7c-3.8,0-6.3-3.4-6.3-8.7c0-7.4,4.6-12.1,11.8-12.1c2.8,0,5.3,0.5,7.2,1.5v15.7
		C123.3,44,123.8,44.7,125.2,45.3L125.2,45.3z M116.2,41.7V26.5c-0.3-0.1-0.6-0.2-0.9-0.2c-1.9,0-3.3,3.2-3.3,7.6
		c0,5.1,1.2,8.4,3,8.4C115.5,42.3,116,42.1,116.2,41.7z M137.4,45.3v0.2h-10.8v-0.2c1.1-0.4,1.8-1.3,1.8-2.8V31c0-1.8-0.5-2.6-1.8-3
		v-0.2l9-2.5v17.2C135.6,44,136.4,44.9,137.4,45.3z M128.1,21.3c0-2,1.6-3.7,3.7-3.7c2,0,3.7,1.6,3.7,3.7c0,2-1.6,3.7-3.7,3.7l0,0
		C129.8,25,128.2,23.3,128.1,21.3L128.1,21.3z M149.6,45.3v0.2h-10.8v-0.2c1.1-0.4,1.8-1.3,1.8-2.8V23.8c0-1.4-0.5-2.4-1.8-2.8v-0.2
		l9-2.7v24.4C147.7,44,148.5,44.9,149.6,45.3L149.6,45.3z"/>
	<path d="M148.2,52.3l2.1-5.7h0.2c1.2,1.1,3.3,1.7,4.6,1.7c2.3,0,3.7-0.5,4.6-1.7l0.1-0.2L152.1,29c-0.7-1.6-1.6-2.6-2.5-2.9v-0.2
		H161V26c-1.1,0.4-1.6,0.9-1.6,1.7c0,0.6,0.1,1.2,0.3,1.8l3,7.8l2.9-7.4c0.3-0.6,0.4-1.2,0.4-1.8c0-1.1-0.6-1.8-1.8-2.1v-0.2h5.6V26
		c-1.2,0.4-1.8,1.4-2.6,3.4l-6.8,17.5c-2,5.3-4.5,6.7-7.9,6.7C151.6,53.5,149.7,53.2,148.2,52.3L148.2,52.3z"/>
</g>
</svg>
