<?xml version="1.0" encoding="utf-8"?>
<!-- Generator: Adobe Illustrator 24.1.0, SVG Export Plug-In . SVG Version: 6.00 Build 0)  -->
<svg version="1.1" id="Layer_1" xmlns="http://www.w3.org/2000/svg" xmlns:xlink="http://www.w3.org/1999/xlink" x="0px" y="0px"
	 viewBox="0 0 3368 830" style="enable-background:new 0 0 3368 830;" xml:space="preserve">
<style type="text/css">
	.st0{fill:#EC2728;}
	.st1{fill:#E2E2E3;}
	.st2{fill:#EC2828;}
	.st3{fill:#EC2829;}
	.st4{fill:#909295;}
	.st5{fill:#8F9194;}
	.st6{fill:#909194;}
</style>
<g>
	<path class="st0" d="M169.1,385.1c2-7,1.8-14.3,2.7-21.5c8.4-62.3,32.1-118.1,71.6-166.8C294,134.4,358.6,93.6,437.4,78.1
		C550.3,56,650.8,83.6,736.1,161C793,212.6,827,277.4,839.8,353c24.2,143-48.1,287-177.2,353.8c-33.2,17.2-68.3,28.6-105.2,34.3
		c-2.3,0.4-4.3,1-4.5-2.9c-1.4-41.2,0-82.1,8.7-122.5c6.2-28.5,18.7-54.2,34.9-78.3c12.3-18.2,24.9-36.2,36.7-54.7
		c18.3-28.8,26.9-60.9,29.9-94.6c2.7-29.7,1.1-59.5,1.3-89.3c0.2-27.3,0.2-54.6-0.3-81.8c-0.4-18.4-12.7-29.7-31.3-29.7
		c-53-0.1-106-0.1-159,0c-10.1,0-19.5,2.8-26.9,10.1c-7.2,7.1-8.7,16.2-6.2,25.4c6.5,24.6,13.6,49,20.5,73.4
		c7.4,26.2,14.9,52.4,22.4,78.6c5,17.3-3.8,34.5-20.5,40c-16.5,5.4-34.1-3.5-39.9-20.6c-12.8-37.1-25.4-74.2-38-111.2
		c-11.1-32.5-22.2-65.1-33.3-97.6c-0.3-0.8-0.6-1.5-1.7-2.2c0,1.3,0,2.6,0,4c0.1,62.2,0.4,124.4,0.1,186.7
		c-0.2,39.8,11.8,75.7,32.1,109.5c10.7,17.9,22.9,34.7,34.9,51.6c23.8,33.6,36.9,71,42,111.7c3.7,29.6,4.3,59.3,3.7,89.1
		c-0.1,6.4-0.1,6.5-6.6,5.5c-61.1-9.4-115.8-33.3-163.5-72.5C231.2,617.9,192.1,553.3,175.7,475c-2.8-13.3-4.7-26.8-5.7-40.4
		c-0.1-1.2,0.5-2.7-0.9-3.6C169.1,415.7,169.1,400.4,169.1,385.1z"/>
	<path class="st1" d="M3197.8,505.9c0.4,0,0.7-0.1,1.1-0.1c0,27.6,0,55.2,0,82.9c-0.3,0-0.7,0-1,0
		C3197.8,561.1,3197.8,533.5,3197.8,505.9z"/>
	<path class="st2" d="M1578.8,421.2c0-53.4,0.1-106.8-0.1-160.2c0-4.6,1.3-5.7,5.8-5.7c47.5,0.2,95-0.2,142.4,0.2
		c24.6,0.2,49.5,1.4,72.5,11.5c39.1,17.1,59.6,47.5,61.7,90c1.4,28.7-6.6,54.2-26.9,75.1c-18.4,19-41.5,29-67.4,32.8
		c-25.8,3.7-51.9,1.5-77.8,2c-6.8,0.1-6.8,0-6.8,6.9c0,36.1-0.1,72.2,0.1,108.3c0,4-0.9,5.3-5.1,5.3c-31.2-0.2-62.3-0.2-93.5,0
		c-4,0-4.9-1.2-4.9-5C1578.9,528.6,1578.8,474.9,1578.8,421.2z M1681,363.2c0,9.5,0.1,19-0.1,28.4c-0.1,2.9,0.9,3.6,3.7,3.6
		c10.5-0.1,21-0.1,31.5,0c7.2,0.1,14.3-0.6,21.2-2.7c15-4.6,23.2-15.8,22.5-30.8c-0.7-15.8-9.1-25.6-25.4-28.6
		c-17-3.1-34.2-0.9-51.3-1.4c-2.8-0.1-2.1,2.1-2.1,3.6C1681,344.6,1681,353.9,1681,363.2z"/>
	<path class="st3" d="M900,421.2c0-53.6,0-107.1-0.1-160.7c0-4.1,0.9-5.2,5.1-5.2c76.6,0.1,153.3,0.1,229.9,0c4.1,0,5.3,0.9,5.3,5.1
		c-0.2,23.1-0.2,46.2,0,69.4c0,3.9-1,5-5,5c-43.3-0.1-86.6,0-130-0.2c-4.3,0-6,0.8-5.9,5.6c0.4,14.5,0.3,28.9,0,43.4
		c-0.1,3.8,1.1,4.7,4.8,4.7c32.8-0.1,65.6,0,98.5-0.2c4.1,0,5.3,1,5.3,5.2c-0.2,21.5-0.2,42.9,0,64.4c0,4.3-0.9,5.6-5.4,5.5
		c-32.2-0.2-64.3-0.1-96.5-0.1c-6.5,0-6.5,0-6.5,6.3c0,37.6-0.1,75.2,0.1,112.8c0,4.2-1.2,5.2-5.3,5.2c-29.8-0.2-59.6-0.2-89.5,0
		c-3.9,0-5-1-5-4.9C900.1,528.7,900,475,900,421.2z"/>
	<path class="st3" d="M1175,420.9c0-53.4,0.1-106.8-0.1-160.2c0-4.5,1.2-5.4,5.5-5.4c30.5,0.2,61,0.2,91.5,0c4.5,0,5.4,1.2,5.4,5.5
		c-0.1,79.7-0.1,159.3-0.2,239c0,4.9,1.2,6,6,6c39.8-0.2,79.6,0,119.4-0.2c4.8,0,5.6,1.4,5.6,5.8c-0.2,23.8-0.2,47.6,0,71.3
		c0,3.8-1,4.7-4.7,4.6c-74.6-0.1-149.3-0.1-223.9,0c-3.9,0-4.6-1.3-4.6-4.8C1175.1,528.7,1175,474.8,1175,420.9z"/>
	<path class="st0" d="M1544,421.5c0,53.6-0.1,107.1,0.1,160.7c0,4.2-1.1,5.2-5.2,5.2c-30.7-0.2-61.3-0.2-92,0
		c-4.2,0-5.2-1.2-5.2-5.3c0.1-107.1,0.1-214.2,0-321.3c0-4.5,1.2-5.4,5.5-5.4c30.5,0.2,61,0.2,91.5,0c4.6,0,5.4,1.3,5.4,5.5
		C1544,314.4,1544,368,1544,421.5z"/>
	<path class="st4" d="M2592.6,433.4c8,4.7,14.8,8.9,21.2,13.9c17.4,13.4,30.6,30.4,42.4,48.7c18.6,28.9,37.4,57.8,56.1,86.7
		c0.8,1.2,1.6,2.5,2.3,3.7c-1.1,1.6-2.5,1-3.8,1c-10.3,0.1-20.7-0.1-31,0.1c-3.7,0.1-5.7-1.3-7.6-4.2c-19.1-30-38.2-60-57.7-89.8
		c-8.5-12.9-16.9-26-28.6-36.4c-16.3-14.5-35.5-21.1-57.2-21.2c-14.3-0.1-28.7,0.2-43-0.1c-4.5-0.1-5.9,1-5.9,5.7
		c0.2,46.6,0,93.2,0.2,139.7c0,5-1.1,6.7-6.3,6.3c-7-0.5-14-0.3-21,0c-3.8,0.1-4.8-1.3-4.8-4.9c0.1-20.1,0.1-40.3,0.1-60.4
		c0-86,0-172,0-258c0-6.8,0-6.8,6.7-6.8c46,0,92-0.2,138,0.1c19.2,0.1,37.7,3.9,54.6,13.6c24.4,14.1,36.9,35.6,39.5,63.3
		c1.2,12.7,0.5,25.2-2.7,37.5c-6.9,26.3-24.6,42.6-49.4,52.1C2621.7,429.1,2607.9,431.9,2592.6,433.4z M2480.1,346.6
		c0,18.6,0.1,37.3-0.1,55.9c-0.1,4.4,0.9,6,5.7,5.9c28.8-0.2,57.6-0.1,86.5-0.1c13.2,0,26.2-1.5,38.9-5.3c12-3.6,22.8-9.2,31-19
		c10.3-12.4,12.8-27,12-42.6c-1.1-24.1-15-42.6-37.9-50.3c-12.4-4.2-25.4-5.4-38.4-5.6c-31-0.4-62-0.1-93-0.3
		c-4.2,0-4.9,1.4-4.9,5.1C2480.2,309,2480.1,327.8,2480.1,346.6z"/>
	<path class="st5" d="M2106.9,428.5c0.1-39.3,5.1-70.8,20.5-99.8c23.3-44,59.6-69.5,109.4-75.5c28.7-3.4,56.9-1.7,84,8.7
		c36.4,14,61.5,40,77.3,75.2c10.8,24.1,15.2,49.6,16.2,76c1,27.3-1.5,54.1-10.4,80c-13.2,38.6-36.8,68.7-74.5,86.2
		c-27.3,12.7-56.4,15.2-85.9,12.9c-26.7-2-51.6-9.9-73.3-26c-28-20.7-45.4-48.6-55.1-81.6C2108.9,464.1,2106.6,443,2106.9,428.5z
		 M2381.2,420.3c0.3-11.7-0.8-24.9-3.3-38c-5.6-29.3-17.1-55.9-39.6-76.1c-35.9-32.1-78-35.3-121.6-20.9
		c-34.8,11.5-55,38.8-66.6,72.2c-13.2,37.7-13.6,76.3-4.3,114.9c6.5,27.2,19.7,50.9,41.1,69.2c27.7,23.6,60.4,28.7,95.2,23.5
		c35-5.2,60.2-25.1,77.8-55.1C2375.9,482.8,2381.6,453.1,2381.2,420.3z"/>
	<path class="st6" d="M3002.5,257.4c-10.6,9.7-20,18.3-29.5,26.9c-20.8,18.9-41.7,37.7-62.5,56.6c-17.9,16.2-35.7,32.5-53.7,48.6
		c-2.6,2.3-2.6,3.7-0.5,6.3c41.6,52.1,83.1,104.4,124.6,156.6c9,11.3,17.9,22.6,27.2,34.3c-4.3,1.3-8.1,0.6-11.9,0.6
		c-8.5,0.1-17,0-25.5,0.1c-2.7,0-4.5-0.7-6.3-3c-42.8-56.5-85.8-112.8-128.6-169.3c-2.2-2.9-3.4-3.5-6.4-0.7
		c-17.4,16-34.9,31.8-52.6,47.5c-2.5,2.2-3.4,4.5-3.3,7.7c0.1,37.3,0,74.5,0.2,111.8c0,4.8-1.2,6.4-6.1,6.1
		c-7.1-0.4-14.3-0.3-21.5,0c-3.5,0.1-4.5-1-4.5-4.5c0.2-20,0.1-39.9,0.1-59.9c0-86.7,0-173.3-0.1-260c0-4.4,0.9-6.1,5.7-5.8
		c6.8,0.4,13.7,0.5,20.5,0c5.1-0.3,5.9,1.5,5.9,6.2c-0.2,52.7-0.1,105.5-0.1,158.2c0,2,0,3.9,0,7.3c5.1-4.6,9.4-8.3,13.6-12.2
		c29.1-26.9,58.1-53.8,87.2-80.7c27.6-25.5,55.2-51,82.8-76.6c1.2-1.2,2.4-2.2,4.3-2.1C2974.8,257.4,2987.9,257.4,3002.5,257.4z"/>
	<path class="st5" d="M1901.9,422c0-52.9,0.1-105.8-0.1-158.7c0-4.9,1.3-6,6.1-6c61.2,0.2,122.3,0.2,183.5,0c4.4,0,6.3,0.8,5.9,5.6
		c-0.5,6-0.3,12,0,18c0.2,3.6-1.1,4.4-4.5,4.4c-26.8-0.1-53.7-0.1-80.5-0.1c-24.3,0-48.7,0.1-73-0.1c-4.6,0-6.2,0.8-6.2,5.9
		c0.2,35.8,0.2,71.5,0,107.3c0,4.7,1.1,6.2,6,6.1c42.8-0.2,85.7-0.1,128.5-0.2c4.3,0,6,0.9,5.6,5.4c-0.4,5.6-0.5,11.3,0,17
		c0.4,4.7-1.6,5.3-5.7,5.3c-41-0.1-82-0.1-123-0.1c-11.3,0-11.3,0-11.3,11.5c0,46.3,0,92.5,0.1,138.8c0,4-0.9,5.6-5.2,5.4
		c-7.1-0.4-14.3-0.3-21.5,0c-3.8,0.1-4.8-1.1-4.8-4.8c0.1-35.4,0.1-70.9,0.1-106.3C1901.9,458.3,1901.9,440.1,1901.9,422z"/>
	<path class="st4" d="M3197.8,505.9c0,27.6,0.1,55.2,0.1,82.8c-5.7,0-11.3-0.1-17,0.2c-3.5,0.2-4.1-1.3-4-4.4
		c0.1-16.6,0.1-33.3,0.1-49.9c0-1.6,0-3.2,0-4.8c-0.3,0-0.5-0.1-0.8-0.1c-3.4,13.3-6.8,26.5-10.2,39.8c-1.4,5.3-2.8,10.6-4,15.9
		c-0.6,2.6-1.8,3.6-4.4,3.5c-5.1-0.3-11.3,1.4-15.2-0.9c-3.7-2.2-3.2-9-4.4-13.7c-3.5-13.2-6.8-26.4-10.1-39.6c-0.4-1.4-0.8-2.7-2-4
		c0,15.9,0,31.8,0,47.7c0,10.4,0,10.4-10.4,10.4c-11.2,0-11.2,0-11.2-11.2c0-22.3,0.1-44.6-0.1-66.9c0-3.9,1-5.1,5-5
		c8.3,0.3,16.7,0.3,25,0c3.6-0.1,4.9,1.3,5.6,4.5c3.2,13.1,6.6,26.1,10,39.1c0.4,1.6,0.9,3.2,1.6,5.9c4-15.7,7.9-30.2,11.4-44.9
		c0.9-3.6,2.3-4.8,6-4.6C3178.5,506,3188.1,505.9,3197.8,505.9z"/>
	<path class="st5" d="M3054.4,505.8c11.3,0,22.7,0.1,34-0.1c3.3-0.1,4.9,0.6,4.6,4.3c-0.3,4.3-0.2,8.7,0,13c0.1,2.9-0.9,3.8-3.7,3.7
		c-5.8-0.2-11.7,0.2-17.5-0.1c-3.9-0.2-5.1,0.9-5.1,5c0.2,17.5,0,34.9,0.2,52.4c0.1,4-1.2,5.2-5.1,5c-5.3-0.3-10.7-0.4-16,0
		c-4.4,0.3-5.2-1.4-5.1-5.4c0.2-17.3,0-34.6,0.2-51.9c0-3.9-0.9-5.3-5-5c-5.6,0.3-11.3-0.1-17,0.2c-3.3,0.1-4.4-1.1-4.2-4.3
		c0.3-5.3-1.7-12.2,1-15.5c2.8-3.5,10-1,15.2-1.1C3038.7,505.7,3046.6,505.8,3054.4,505.8z"/>
	<path class="st1" d="M492.2,744.6c9.5,0,19.1,0,28.6,0c0,0.2,0,0.3,0,0.5c-9.5,0-19,0-28.6,0C492.3,744.9,492.3,744.8,492.2,744.6z
		"/>
</g>
</svg>
